<?xml version="1.0" standalone="no"?>
<!DOCTYPE svg PUBLIC "-//W3C//DTD SVG 20010904//EN"
 "http://www.w3.org/TR/2001/REC-SVG-20010904/DTD/svg10.dtd">
<svg version="1.0" xmlns="http://www.w3.org/2000/svg"
 width="1080.000000pt" height="1080.000000pt" viewBox="0 0 1080.000000 1080.000000"
 preserveAspectRatio="xMidYMid meet">

<g transform="translate(0.000000,1080.000000) scale(0.100000,-0.100000)"
fill="#000000" stroke="none">
<path d="M181 10718 c-23 -46 -61 -120 -86 -166 -25 -46 -45 -88 -45 -93 0 -6
-11 -27 -25 -47 l-25 -37 0 -497 c0 -415 3 -508 16 -564 8 -37 19 -103 24
-147 5 -43 14 -93 19 -110 5 -18 15 -68 21 -112 6 -44 20 -116 30 -160 11 -44
31 -132 45 -195 14 -63 30 -131 36 -150 5 -19 13 -55 18 -80 21 -110 44 -215
78 -350 20 -80 39 -163 44 -185 8 -45 37 -161 99 -400 23 -88 46 -181 50 -207
5 -26 13 -55 18 -65 5 -10 26 -81 46 -158 20 -77 48 -176 61 -220 13 -44 31
-107 39 -140 34 -131 54 -195 64 -207 5 -7 12 -31 15 -53 2 -22 13 -71 25
-110 11 -38 23 -88 27 -110 4 -22 15 -59 26 -82 10 -23 19 -49 19 -58 0 -8 4
-23 9 -33 5 -9 21 -57 36 -107 28 -92 37 -119 74 -214 12 -29 21 -60 21 -67 0
-7 5 -25 11 -41 18 -42 79 -214 90 -250 5 -18 16 -45 24 -60 8 -15 15 -35 15
-44 0 -9 3 -19 7 -23 27 -27 46 -111 52 -237 7 -131 8 -138 39 -184 18 -27 32
-53 32 -58 0 -16 62 -142 72 -145 4 -2 8 -13 8 -23 0 -11 9 -37 20 -57 22 -43
156 -320 224 -467 25 -55 66 -140 90 -190 24 -49 62 -128 84 -175 22 -47 61
-128 86 -181 25 -53 46 -101 46 -107 0 -5 7 -15 16 -23 9 -8 14 -22 11 -37 -3
-15 1 -26 11 -29 38 -15 123 -109 158 -176 20 -40 49 -90 62 -112 14 -22 39
-65 55 -95 29 -54 128 -220 172 -290 12 -19 60 -96 106 -170 46 -74 104 -164
129 -199 25 -34 52 -73 60 -86 8 -13 38 -55 65 -94 28 -39 69 -99 92 -134 68
-101 333 -456 393 -527 31 -36 80 -96 109 -135 30 -38 59 -74 65 -80 6 -5 29
-32 50 -60 92 -116 469 -536 645 -719 117 -121 108 -111 219 -220 51 -49 92
-93 92 -97 0 -5 6 -9 13 -9 7 0 23 -13 35 -30 l23 -30 126 0 125 0 -68 78
c-38 42 -80 88 -94 102 -14 14 -50 54 -80 90 -30 36 -73 83 -95 105 -23 22
-92 94 -155 160 -62 66 -152 161 -200 210 -111 117 -233 253 -349 390 -51 61
-105 124 -120 140 -53 59 -310 382 -389 490 -45 61 -103 139 -129 175 -70 95
-93 130 -93 140 0 6 -4 10 -8 10 -5 0 -36 39 -68 86 -32 47 -77 112 -99 144
-65 94 -129 190 -171 258 -87 139 -106 170 -146 237 -24 39 -48 79 -55 90 -7
11 -16 27 -20 35 -4 8 -17 30 -30 49 -27 39 -30 71 -7 71 13 0 172 -66 299
-125 17 -7 54 -20 84 -29 49 -13 56 -13 77 2 13 9 24 24 24 33 0 28 -201 214
-306 282 -172 110 -289 213 -355 310 -27 39 -62 71 -109 103 -76 50 -126 105
-146 162 -17 48 -17 62 0 114 8 24 57 177 110 340 53 164 101 300 106 303 6 4
10 14 10 23 0 26 95 270 200 512 36 83 348 495 564 745 254 295 640 695 669
695 11 0 17 -8 17 -22 0 -103 49 -602 70 -713 5 -27 14 -81 20 -120 10 -68 42
-225 60 -295 45 -178 48 -189 75 -275 7 -22 32 -101 55 -175 23 -74 48 -148
55 -165 7 -16 23 -59 35 -95 13 -36 36 -93 51 -128 16 -35 29 -66 29 -70 0 -4
15 -38 34 -77 19 -38 57 -118 84 -177 28 -58 59 -111 68 -116 14 -8 36 0 98
33 76 40 88 43 186 49 132 9 151 -1 209 -106 44 -78 46 -108 19 -197 -14 -44
-74 -111 -102 -112 -27 -1 -140 -81 -144 -102 -4 -20 37 -77 55 -77 16 0 128
85 147 111 12 18 27 20 142 22 71 1 136 -2 146 -6 12 -6 18 -3 23 12 5 16 15
21 44 21 28 0 44 7 66 30 15 16 40 32 56 35 15 4 33 13 40 21 6 8 27 14 45 14
23 0 34 5 34 15 0 20 51 45 92 45 18 0 47 9 63 20 17 11 38 20 47 20 10 0 33
14 51 30 31 27 42 30 100 30 77 0 102 17 72 50 -16 18 -16 20 -2 26 9 3 26 -1
39 -10 30 -22 65 -20 78 3 5 11 24 22 41 26 17 4 50 20 74 36 24 16 50 29 58
29 9 0 19 5 22 10 4 6 10 8 15 5 4 -3 39 13 78 35 38 22 73 40 79 40 5 0 18 9
28 20 9 10 34 25 54 31 20 6 41 15 46 19 6 4 31 11 57 14 26 4 50 11 53 17 4
5 14 9 24 9 10 0 52 17 92 37 41 21 83 36 94 35 12 -2 31 8 45 23 13 14 34 25
47 25 35 0 63 18 63 39 0 21 26 31 79 31 21 0 44 9 63 25 16 13 47 30 69 37
23 6 43 18 46 25 8 20 23 15 23 -7 0 -28 48 -26 92 4 19 13 41 26 49 29 8 4 1
6 -16 5 -51 -2 -65 2 -65 16 0 17 48 29 83 21 14 -4 28 -2 31 4 4 6 17 11 29
11 13 0 30 9 40 20 9 11 27 20 39 21 13 0 33 2 46 5 14 2 22 -1 22 -10 0 -17
23 -27 38 -17 8 5 4 14 -13 29 -43 38 -176 146 -204 167 -15 11 -65 52 -112
91 -46 39 -95 77 -109 84 -14 7 -43 28 -65 47 -93 77 -140 113 -150 113 -25 0
-94 86 -104 129 -10 47 -10 47 24 136 13 33 36 92 50 130 15 39 33 84 40 100
7 17 28 71 45 120 18 50 39 106 46 125 7 19 33 93 58 163 53 148 52 147 72
147 12 0 149 -97 209 -148 69 -58 336 -235 445 -295 78 -42 80 -49 50 -173
-100 -421 -165 -737 -155 -754 3 -5 1 -11 -5 -15 -5 -3 -10 -37 -10 -76 l0
-69 30 0 c33 0 38 14 15 40 -13 14 -12 16 10 18 14 1 28 -5 34 -16 10 -18 23
-11 27 14 2 10 -3 14 -11 10 -9 -3 -12 0 -9 9 5 13 19 16 132 31 35 4 56 12
62 24 6 10 32 26 59 35 27 9 57 25 67 36 24 26 86 57 133 65 20 4 56 17 80 30
41 21 47 22 62 8 14 -13 24 -13 58 -4 22 6 43 15 46 20 7 12 -27 30 -62 31
-42 2 51 17 112 18 28 1 61 8 75 15 87 50 206 106 223 106 23 0 123 45 132 60
4 6 25 8 54 4 36 -5 50 -2 60 10 7 9 24 16 37 16 22 0 36 5 84 31 51 28 112
53 155 64 79 20 135 43 210 82 66 36 63 36 79 -20 71 -247 92 -549 62 -880
-20 -212 -87 -572 -116 -628 -6 -10 -10 -25 -10 -34 0 -9 -6 -31 -14 -48 -8
-18 -29 -70 -47 -117 -17 -47 -35 -89 -40 -95 -5 -5 -9 -14 -9 -21 0 -14 -73
-167 -100 -209 -11 -16 -26 -43 -35 -60 -24 -47 -143 -225 -187 -279 -270
-335 -517 -535 -873 -711 -206 -102 -404 -166 -655 -212 -136 -25 -549 -25
-705 0 -222 36 -467 108 -660 194 -191 85 -249 117 -420 229 -33 21 -67 42
-75 45 -8 4 -29 18 -45 32 -17 14 -76 61 -133 105 -100 77 -268 228 -363 325
-58 59 -79 60 -143 3 l-49 -43 49 -54 c55 -60 206 -204 274 -261 25 -20 67
-55 94 -78 187 -157 499 -345 751 -453 392 -167 792 -240 1185 -217 277 16
502 64 757 161 126 48 350 155 410 197 15 11 55 37 88 58 173 109 382 295 554
492 164 187 325 444 436 697 9 22 21 49 26 60 57 129 140 404 170 566 46 249
59 370 65 629 8 274 -4 415 -65 829 -20 129 -131 555 -170 646 -4 11 -14 38
-21 60 -24 76 -128 330 -175 430 -123 259 -252 489 -372 661 -85 124 -84 137
13 103 33 -11 68 -22 79 -25 23 -7 46 -15 98 -38 21 -9 42 -16 47 -16 5 0 33
-11 62 -24 29 -13 89 -38 133 -56 44 -17 100 -40 125 -50 25 -10 70 -26 100
-35 81 -25 274 -97 284 -106 15 -13 26 -11 26 5 0 16 -168 208 -247 283 -226
213 -254 237 -435 373 -128 96 -163 119 -263 180 -126 77 -153 99 -135 110 8
6 75 10 148 10 73 0 153 5 177 11 33 8 59 8 112 -3 69 -15 93 -14 93 2 0 12
-213 190 -330 276 -156 115 -317 214 -457 282 -10 5 -37 18 -60 30 -23 12 -83
40 -135 63 -51 22 -106 47 -123 54 -124 55 -442 155 -602 189 -37 8 -117 26
-178 40 -196 44 -466 74 -790 87 -214 8 -308 15 -327 25 -27 14 -42 33 -164
219 -40 61 -99 147 -131 193 -32 45 -63 92 -70 104 -6 11 -15 23 -20 27 -9 7
-55 67 -90 118 -29 43 -16 57 77 77 308 67 761 116 1083 116 97 0 177 4 177 8
0 5 -92 17 -204 27 -324 29 -695 10 -1071 -54 -139 -24 -144 -24 -169 -8 -21
14 -265 369 -310 452 -44 81 -70 121 -82 128 -8 4 -14 16 -14 26 0 34 -24 42
-115 39 l-87 -3 27 -39 c14 -21 38 -62 52 -90 15 -28 39 -69 53 -91 15 -22 30
-47 33 -55 4 -8 16 -28 27 -45 11 -16 26 -43 34 -60 9 -16 24 -41 34 -55 11
-14 43 -63 73 -110 30 -46 62 -93 72 -102 39 -40 20 -61 -78 -88 -174 -47
-437 -133 -575 -186 -80 -31 -163 -63 -185 -71 -21 -8 -73 -30 -115 -49 -88
-42 -171 -55 -198 -32 -9 9 -35 23 -57 32 -54 23 -156 76 -175 91 -8 6 -58 35
-110 65 -52 29 -104 61 -115 70 -11 10 -32 24 -47 31 -15 8 -64 39 -110 69
-46 30 -91 60 -99 65 -18 11 -80 55 -125 87 -17 13 -44 32 -60 43 -16 11 -64
48 -106 82 -43 34 -91 69 -108 78 -16 9 -30 19 -30 23 0 4 -37 36 -82 72 -45
36 -111 93 -147 127 -36 34 -86 80 -110 103 l-43 40 -115 0 c-132 0 -131 3
-29 -91 33 -30 86 -79 119 -109 32 -30 67 -58 78 -62 10 -4 19 -11 19 -15 0
-9 106 -98 265 -223 50 -39 98 -77 108 -85 9 -8 21 -15 25 -15 4 0 32 -21 62
-46 78 -65 304 -219 345 -234 14 -5 25 -14 25 -19 0 -5 24 -21 53 -36 28 -15
59 -34 68 -41 21 -19 206 -125 287 -164 89 -44 85 -55 -40 -119 -307 -156
-636 -355 -863 -523 -44 -32 -145 -107 -225 -166 -80 -58 -152 -112 -160 -119
-8 -6 -78 -62 -155 -124 -213 -170 -399 -333 -545 -475 -52 -51 -107 -102
-122 -113 -75 -59 -421 -459 -558 -646 -40 -55 -85 -116 -100 -135 -41 -55
-179 -273 -259 -407 -39 -67 -76 -125 -81 -128 -6 -4 -10 -16 -10 -28 1 -25
-3 -28 47 42 95 132 384 494 488 611 280 316 707 745 950 954 297 255 608 497
825 643 124 83 360 233 366 233 3 0 36 19 74 43 39 23 78 47 88 52 120 69 222
125 344 189 165 85 192 91 267 52 70 -36 155 -76 164 -76 4 0 26 -9 50 -19 70
-32 199 -81 211 -81 6 0 79 -22 161 -49 83 -27 167 -52 187 -56 44 -8 64 -27
46 -42 -15 -12 -118 -46 -208 -68 -131 -33 -434 -143 -578 -211 -51 -24 -96
-44 -99 -44 -11 0 -337 -167 -438 -225 -130 -74 -528 -341 -655 -439 -461
-355 -800 -684 -1131 -1096 -68 -85 -147 -186 -174 -224 -28 -38 -67 -92 -87
-120 -33 -45 -226 -341 -253 -387 -5 -10 -26 -44 -45 -76 -19 -32 -45 -76 -58
-98 -42 -72 -199 -398 -237 -490 -20 -49 -40 -99 -46 -110 -5 -11 -14 -33 -19
-50 -75 -236 -96 -264 -129 -170 -20 55 -68 188 -81 220 -4 11 -15 37 -24 58
-9 21 -16 43 -16 50 0 6 -11 43 -26 82 -14 38 -33 93 -43 120 -10 28 -35 102
-56 165 -21 63 -43 121 -48 128 -6 8 -11 49 -11 92 0 75 -1 79 -20 74 -18 -4
-23 3 -40 63 -11 37 -29 100 -41 138 -13 39 -34 108 -48 155 -14 47 -37 124
-51 171 -14 47 -26 93 -26 102 0 10 -4 25 -9 35 -6 9 -19 49 -29 87 -11 39
-32 115 -47 170 -16 55 -34 125 -41 155 -12 50 -27 106 -80 295 -9 33 -20 78
-24 100 -4 22 -15 54 -24 70 -9 17 -16 38 -16 49 0 18 -72 315 -90 371 -5 17
-17 68 -26 115 -27 145 -48 239 -104 470 -4 19 -18 87 -29 150 -12 63 -26 129
-31 146 -6 17 -10 47 -10 67 0 19 -4 47 -9 60 -6 14 -12 56 -15 93 -5 73 -22
206 -32 262 -4 18 -8 54 -10 80 -1 26 -8 76 -14 112 -16 88 -7 178 24 237 14
26 37 73 51 103 68 141 140 282 181 355 44 79 66 124 98 198 l16 37 -89 0 -88
0 -42 -82z m5504 -746 c11 -8 115 -150 115 -157 0 -4 29 -38 70 -81 11 -12 20
-24 20 -27 0 -10 84 -118 124 -159 20 -20 36 -40 36 -43 0 -7 53 -67 96 -109
12 -12 28 -35 37 -52 19 -38 8 -54 -37 -54 -31 0 -273 -31 -394 -51 -72 -11
-205 4 -232 26 -8 7 -31 18 -50 23 -19 6 -66 22 -105 37 -38 14 -101 37 -140
51 -89 32 -212 82 -247 100 -14 8 -33 14 -41 14 -9 0 -28 6 -44 14 -15 8 -53
24 -83 36 -104 42 -150 65 -150 73 0 11 50 57 62 57 6 0 63 22 128 50 154 65
451 172 615 220 125 37 199 48 220 32z m1342 -1149 c17 -14 17 -14 0 -9 -10 3
-61 6 -113 6 -53 0 -93 4 -90 8 9 16 184 11 203 -5z m-215 -48 c13 -29 2 -73
-22 -86 -8 -5 -39 -19 -67 -31 -51 -21 -52 -22 -36 -40 15 -17 15 -20 3 -28
-8 -6 -19 -10 -25 -10 -5 0 -17 4 -25 10 -12 8 -12 11 3 28 9 10 17 26 17 35
0 10 8 17 19 17 10 0 29 8 42 19 13 10 33 20 44 22 14 3 20 12 20 29 0 34 -27
37 -56 6 -26 -28 -59 -34 -59 -11 0 21 70 65 103 65 20 0 31 -7 39 -25z m331
1 c9 -7 17 -16 17 -20 0 -14 -49 -5 -71 14 l-24 19 30 0 c17 0 38 -6 48 -13z
m-725 -43 c15 -10 30 -22 34 -28 29 -40 -24 -111 -97 -130 -54 -13 -82 -8
-113 23 -32 32 -34 51 -6 77 19 17 126 70 152 75 1 0 15 -8 30 -17z m632 -8
c0 -8 -7 -15 -15 -15 -8 0 -15 7 -15 15 0 8 7 15 15 15 8 0 15 -7 15 -15z
m-390 -26 c0 -12 -8 -23 -20 -26 -16 -4 -20 -14 -20 -44 0 -46 -16 -52 -25 -9
-5 22 -1 40 15 65 24 39 50 46 50 14z m530 -8 c0 -12 -29 -23 -41 -15 -18 10
-9 24 16 24 14 0 25 -4 25 -9z m100 -16 c11 -13 10 -18 -2 -28 -9 -7 -18 -19
-20 -27 -3 -8 -7 4 -9 28 -5 44 8 55 31 27z m-485 -35 c3 -5 -1 -10 -10 -10
-9 0 -13 5 -10 10 3 6 8 10 10 10 2 0 7 -4 10 -10z m-35 -59 c13 -25 13 -61 0
-61 -6 0 -19 14 -30 32 -15 24 -16 34 -7 40 18 12 25 10 37 -11z m600 -48 c0
-20 -3 -24 -11 -16 -7 7 -9 19 -6 27 10 24 17 19 17 -11z m-672 -59 c-4 -3
-12 5 -18 18 -12 22 -12 22 6 6 10 -10 15 -20 12 -24z m932 0 c0 -11 -5 -14
-16 -10 -9 3 -21 6 -27 6 -16 0 14 20 31 20 6 0 12 -7 12 -16z m79 -8 c9 -11
8 -15 -5 -20 -17 -6 -44 9 -44 25 0 14 36 10 49 -5z m-906 -12 c14 -14 -5 -31
-30 -26 -25 5 -25 6 -8 18 21 15 29 17 38 8z m532 -24 c-3 -5 -10 -10 -16 -10
-5 0 -9 5 -9 10 0 6 7 10 16 10 8 0 12 -4 9 -10z m255 0 c0 -13 -11 -13 -30 0
-12 8 -11 10 8 10 12 0 22 -4 22 -10z m40 -37 c0 -20 -24 -11 -28 10 -2 12 1
15 12 11 9 -3 16 -13 16 -21z m-767 10 c-7 -2 -19 -2 -25 0 -7 3 -2 5 12 5 14
0 19 -2 13 -5z m867 -11 c0 -14 -23 -32 -42 -32 -25 0 -22 19 5 30 28 11 37
12 37 2z m-785 -12 c8 -13 -25 -13 -45 0 -12 8 -9 10 12 10 15 0 30 -4 33 -10z
m1275 -893 c0 -12 -42 -200 -54 -242 -52 -186 -92 -308 -122 -372 -7 -17 -14
-40 -14 -52 0 -12 -6 -21 -15 -21 -10 0 -15 -10 -15 -27 0 -16 -14 -52 -30
-82 -17 -30 -30 -60 -30 -68 0 -7 -4 -13 -8 -13 -5 0 -14 -12 -21 -26 -13 -29
-38 -27 -33 2 2 10 7 45 12 76 10 60 34 136 77 248 14 36 43 112 65 170 114
296 164 410 180 410 4 0 8 -2 8 -3z m435 -305 c-7 -65 -21 -122 -41 -170 -8
-18 -14 -41 -14 -52 0 -11 -11 -52 -24 -92 -13 -40 -36 -113 -51 -163 -15 -49
-30 -99 -35 -110 -4 -11 -17 -45 -29 -75 -11 -31 -21 -67 -21 -81 0 -15 -7
-32 -15 -39 -8 -7 -15 -21 -15 -32 0 -10 -11 -45 -25 -78 -14 -33 -25 -68 -25
-78 0 -10 -18 -54 -40 -98 -22 -43 -40 -87 -40 -96 0 -9 -7 -23 -15 -32 -8 -8
-15 -23 -15 -34 0 -10 -11 -40 -25 -66 -14 -26 -25 -53 -25 -60 0 -7 -9 -25
-20 -39 -11 -14 -34 -61 -51 -105 -16 -44 -37 -86 -45 -92 -8 -7 -14 -19 -14
-26 0 -8 -4 -14 -10 -14 -12 0 -13 27 -1 34 4 3 11 24 15 47 4 23 17 76 30
118 23 72 63 201 136 439 17 56 35 102 40 102 5 0 14 19 20 43 6 23 30 94 54
157 73 190 106 285 106 301 0 7 6 25 13 39 7 14 28 68 46 120 48 138 101 273
113 287 20 24 29 1 23 -55z m-3958 -285 c58 -61 69 -99 49 -172 -16 -62 -41
-104 -83 -139 -92 -77 -198 -73 -238 10 -31 66 -9 146 79 277 22 32 92 77 122
77 13 0 41 -21 71 -53z m497 -172 c65 -31 83 -122 42 -211 -26 -56 -114 -150
-154 -165 -41 -16 -102 -1 -112 26 -5 13 -15 25 -22 27 -9 3 -13 28 -13 89 l0
84 45 58 c30 38 62 66 94 82 58 29 76 31 120 10z m3571 -267 c-3 -40 -12 -107
-20 -148 -7 -41 -17 -97 -20 -125 -4 -27 -13 -60 -21 -72 -7 -12 -16 -41 -20
-65 -4 -24 -12 -50 -19 -58 -7 -8 -15 -27 -19 -42 -3 -15 -17 -39 -30 -54
l-23 -27 -7 51 c-4 28 -3 59 2 69 5 10 17 52 26 93 19 87 41 164 66 235 15 43
54 164 66 203 2 6 8 12 15 12 8 0 9 -21 4 -72z m-4156 -202 c24 -13 81 -91 81
-110 -1 -55 -65 -211 -97 -238 -23 -19 -151 -58 -190 -58 -41 0 -86 22 -107
52 -21 29 -21 137 -1 186 16 38 105 130 146 153 57 30 129 37 168 15z m3418
-788 c-3 -8 -6 -5 -6 6 -1 11 2 17 5 13 3 -3 4 -12 1 -19z m-687 -678 c0 -5
-7 -10 -15 -10 -8 0 -15 5 -15 10 0 6 7 10 15 10 8 0 15 -4 15 -10z"/>
<path d="M8010 10789 c8 -5 40 -23 70 -40 30 -16 82 -45 115 -64 33 -19 67
-37 75 -41 8 -4 51 -28 95 -53 137 -77 349 -187 630 -325 314 -155 373 -182
515 -236 127 -49 233 -98 410 -189 107 -56 199 -101 204 -101 5 0 17 -6 25
-14 9 -7 66 -36 126 -63 61 -28 139 -64 175 -81 36 -16 83 -37 105 -46 22 -10
52 -23 66 -31 14 -8 60 -28 102 -44 l77 -29 0 53 0 53 -112 47 c-62 26 -126
53 -142 61 -16 8 -34 14 -39 14 -6 0 -35 12 -66 26 -31 14 -83 39 -116 54 -33
16 -80 37 -105 48 -97 42 -301 139 -340 161 -8 5 -26 14 -40 20 -14 7 -54 29
-90 51 -36 21 -94 54 -130 73 -36 19 -135 74 -220 121 -84 47 -159 86 -165 86
-6 0 -15 4 -20 9 -6 5 -42 26 -82 45 -40 20 -75 41 -78 46 -3 6 -12 10 -20 10
-8 0 -53 23 -101 50 -48 28 -92 50 -98 50 -6 0 -20 6 -31 14 -26 18 -81 49
-175 98 -41 22 -80 44 -87 50 -7 5 -27 18 -45 27 -18 10 -67 37 -109 59 l-77
42 -158 0 c-112 0 -155 -3 -144 -11z"/>
<path d="M10182 10733 c127 -165 405 -492 557 -653 l60 -65 1 113 0 114 -57
66 c-32 36 -67 75 -78 87 -20 20 -83 93 -147 170 -18 22 -43 51 -54 65 -12 14
-50 58 -84 98 l-62 72 -94 0 -94 0 52 -67z"/>
<path d="M1060 6625 c0 -7 -6 -18 -13 -22 -16 -10 -57 -76 -57 -92 0 -21 18
-2 40 43 11 24 27 47 35 50 17 6 21 36 5 36 -5 0 -10 -7 -10 -15z"/>
<path d="M965 6477 c-4 -10 -5 -21 -1 -24 10 -10 18 4 13 24 -4 17 -4 17 -12
0z"/>
<path d="M937 6423 c-4 -3 -7 -11 -7 -17 0 -6 5 -5 12 2 6 6 9 14 7 17 -3 3
-9 2 -12 -2z"/>
<path d="M1130 4576 c0 -9 7 -16 16 -16 17 0 14 22 -4 28 -7 2 -12 -3 -12 -12z"/>
<path d="M920 3960 c0 -5 5 -10 10 -10 6 0 10 5 10 10 0 6 -4 10 -10 10 -5 0
-10 -4 -10 -10z"/>
<path d="M870 3748 c0 -16 5 -28 10 -28 13 0 13 20 0 40 -8 12 -10 9 -10 -12z"/>
<path d="M933 3697 c-43 -14 -42 -21 3 -25 37 -2 68 13 58 29 -6 11 -18 10
-61 -4z"/>
<path d="M1096 3683 c-12 -12 -5 -23 14 -23 11 0 20 4 20 9 0 11 -26 22 -34
14z"/>
<path d="M1185 3651 c-7 -12 25 -30 42 -24 7 2 9 11 6 19 -6 16 -39 19 -48 5z"/>
<path d="M1055 3621 c7 -13 72 -34 88 -28 6 2 -5 8 -25 12 -21 4 -38 11 -38
16 0 5 -7 9 -16 9 -8 0 -13 -4 -9 -9z"/>
<path d="M1260 3530 c0 -5 7 -10 15 -10 8 0 15 5 15 10 0 6 -7 10 -15 10 -8 0
-15 -4 -15 -10z"/>
<path d="M1607 3483 c-14 -13 -6 -23 18 -23 16 0 25 6 25 15 0 15 -31 21 -43
8z"/>
<path d="M1410 3470 c19 -13 30 -13 30 0 0 6 -10 10 -22 10 -19 0 -20 -2 -8
-10z"/>
<path d="M1480 3440 c23 -18 60 -27 60 -15 0 7 -57 35 -72 35 -7 0 -2 -9 12
-20z"/>
<path d="M1655 3420 c-3 -5 -22 -10 -41 -10 -19 0 -34 -4 -34 -9 0 -16 38 -23
80 -16 30 5 40 11 40 26 0 20 -34 27 -45 9z"/>
<path d="M1751 3414 c0 -11 3 -14 6 -6 3 7 2 16 -1 19 -3 4 -6 -2 -5 -13z"/>
<path d="M4025 1848 c9 -34 118 -132 215 -196 281 -184 604 -299 990 -354 122
-17 487 -17 600 1 112 17 260 46 335 67 33 9 74 20 90 24 56 15 330 110 370
129 22 10 68 29 103 41 69 25 78 34 17 19 -22 -6 -60 -14 -85 -19 -25 -5 -110
-22 -190 -38 -166 -34 -265 -50 -365 -62 -38 -5 -124 -17 -190 -26 -149 -23
-639 -27 -775 -6 -222 33 -409 84 -605 166 -112 46 -306 149 -399 210 -55 36
-104 66 -109 66 -4 0 -6 -10 -2 -22z"/>
<path d="M0 1533 c0 -102 0 -103 38 -160 21 -32 71 -102 112 -157 41 -54 86
-115 99 -135 13 -20 61 -82 107 -138 118 -144 142 -182 212 -328 35 -71 67
-137 72 -145 5 -8 17 -31 26 -50 8 -19 20 -42 25 -50 4 -8 27 -51 50 -95 36
-70 90 -168 120 -215 5 -8 13 -25 19 -37 9 -21 16 -23 84 -23 68 0 75 2 69 17
-3 10 -12 25 -18 33 -20 24 -145 239 -160 274 -18 44 -3 71 23 40 9 -11 58
-56 107 -99 50 -43 95 -83 100 -90 6 -6 54 -48 107 -93 l97 -82 122 0 122 0
-23 25 c-13 14 -28 25 -33 25 -5 0 -57 39 -115 87 -59 49 -114 94 -122 100 -8
7 -69 61 -135 120 -66 60 -160 144 -209 188 -127 114 -363 379 -486 546 -58
78 -130 170 -160 203 -85 93 -171 208 -227 303 l-23 38 0 -102z"/>
<path d="M0 148 c0 -83 4 -128 12 -136 8 -8 52 -12 132 -12 97 1 118 3 105 13
-8 7 -60 62 -114 122 -144 161 -135 160 -135 13z"/>
</g>
</svg>
